<svg xmlns="http://www.w3.org/2000/svg" width="38.515" height="38.513" viewBox="0 0 38.515 38.513"><path d="M10.114,38.514H28.4A10.125,10.125,0,0,0,38.515,28.4V10.115A10.125,10.125,0,0,0,28.4,0H10.114A10.125,10.125,0,0,0,0,10.115V28.4A10.125,10.125,0,0,0,10.114,38.514Zm-7.475-28.4a7.484,7.484,0,0,1,7.475-7.475H28.4a7.484,7.484,0,0,1,7.475,7.475V28.4A7.484,7.484,0,0,1,28.4,35.876H10.114A7.484,7.484,0,0,1,2.638,28.4Z" transform="translate(0 -0.001)" fill="#fff"/><path d="M11.445,32.447h17.16a5.6,5.6,0,0,0,5.716-5.461,10.032,10.032,0,0,0-2.585-7.322l-3.36-3.4a4.825,4.825,0,0,0-7.235-.113l-3.617,3.507a23.409,23.409,0,0,0-1.6,1.761,14.662,14.662,0,0,1-1.231,1.343l-.252-.193c-1.545-1.186-3.05-2.25-4.483-2.25a2.4,2.4,0,0,0-1.535.526A9.153,9.153,0,0,0,5.729,27.39C5.729,30.179,8.293,32.447,11.445,32.447Zm-1.44-9.488a9.445,9.445,0,0,1,2.827,1.7c.251.193.471.361.646.485a2.017,2.017,0,0,0,1.166.376c1.26,0,2.2-1.112,3.291-2.4.456-.538.928-1.095,1.419-1.567l3.617-3.507c1.221-1.171,2.326-1.153,3.524.065l3.36,3.4a7.527,7.527,0,0,1,1.825,5.471A2.961,2.961,0,0,1,28.6,29.809H11.445c-1.7,0-3.078-1.084-3.078-2.418A6.844,6.844,0,0,1,10.006,22.958Z" transform="translate(-0.691 -1.757)" fill="#fff"/><circle cx="3.16" cy="3.16" r="3.16" transform="translate(9.803 10.147)" fill="#fff"/></svg>